<svg width="108.8" height="18.82" viewBox="0 0 108.8 18.82" xmlns="http://www.w3.org/2000/svg">
    <g id="svgGroup" stroke-linecap="round" fill-rule="nonzero" font-size="9pt" stroke="#ffffff" stroke-width="0.25mm"
        fill="#ffffff" style="stroke:#ffffff;stroke-width:0.25mm;fill:#ffffff">
        <path
            d="M 59.74 10.02 Q 59.74 9.9 59.75 9.79 A 2.591 2.591 0 0 0 59.755 9.732 A 2.233 2.233 0 0 0 59.76 9.58 Q 59.76 8 59.1 6.79 Q 58.44 5.58 57.29 4.91 A 4.763 4.763 0 0 0 56.18 4.44 A 5.579 5.579 0 0 0 54.66 4.24 A 6.013 6.013 0 0 0 54.389 4.246 A 5.014 5.014 0 0 0 52.03 4.93 Q 50.86 5.62 50.19 6.82 A 5.087 5.087 0 0 0 49.704 8.046 A 6.176 6.176 0 0 0 49.52 9.58 A 6.482 6.482 0 0 0 49.553 10.246 A 5.221 5.221 0 0 0 50.22 12.35 Q 50.92 13.56 52.16 14.25 A 5.264 5.264 0 0 0 53.506 14.769 A 6.599 6.599 0 0 0 55.04 14.94 A 6.847 6.847 0 0 0 55.581 14.919 A 5.715 5.715 0 0 0 57.35 14.5 Q 58.4 14.06 59.1 13.22 L 58.3 12.3 Q 57.7 13 56.87 13.34 A 4.423 4.423 0 0 1 56.501 13.473 A 4.78 4.78 0 0 1 55.08 13.68 A 5.367 5.367 0 0 1 54.451 13.644 A 4.288 4.288 0 0 1 52.91 13.17 Q 51.96 12.66 51.43 11.75 Q 50.9 10.84 50.9 9.64 L 50.9 9.42 A 5.124 5.124 0 0 1 50.938 8.788 A 4.073 4.073 0 0 1 51.38 7.36 Q 51.86 6.46 52.72 5.96 A 3.588 3.588 0 0 1 53.425 5.646 A 4.004 4.004 0 0 1 54.66 5.46 Q 55.76 5.46 56.6 5.96 Q 57.44 6.46 57.93 7.35 Q 58.42 8.24 58.42 9.38 L 58.98 8.96 L 50.6 8.96 L 50.6 10.02 L 59.74 10.02 Z M 108.78 10.02 Q 108.78 9.9 108.79 9.79 A 2.591 2.591 0 0 0 108.795 9.732 A 2.233 2.233 0 0 0 108.8 9.58 Q 108.8 8 108.14 6.79 Q 107.48 5.58 106.33 4.91 A 4.763 4.763 0 0 0 105.22 4.44 A 5.579 5.579 0 0 0 103.7 4.24 A 6.013 6.013 0 0 0 103.429 4.246 A 5.014 5.014 0 0 0 101.07 4.93 Q 99.9 5.62 99.23 6.82 A 5.087 5.087 0 0 0 98.744 8.046 A 6.176 6.176 0 0 0 98.56 9.58 A 6.482 6.482 0 0 0 98.593 10.246 A 5.221 5.221 0 0 0 99.26 12.35 Q 99.96 13.56 101.2 14.25 A 5.264 5.264 0 0 0 102.546 14.769 A 6.599 6.599 0 0 0 104.08 14.94 A 6.847 6.847 0 0 0 104.621 14.919 A 5.715 5.715 0 0 0 106.39 14.5 Q 107.44 14.06 108.14 13.22 L 107.34 12.3 Q 106.74 13 105.91 13.34 A 4.423 4.423 0 0 1 105.541 13.473 A 4.78 4.78 0 0 1 104.12 13.68 A 5.367 5.367 0 0 1 103.491 13.644 A 4.288 4.288 0 0 1 101.95 13.17 Q 101 12.66 100.47 11.75 Q 99.94 10.84 99.94 9.64 L 99.94 9.42 A 5.124 5.124 0 0 1 99.978 8.788 A 4.073 4.073 0 0 1 100.42 7.36 Q 100.9 6.46 101.76 5.96 A 3.588 3.588 0 0 1 102.465 5.646 A 4.004 4.004 0 0 1 103.7 5.46 Q 104.8 5.46 105.64 5.96 Q 106.48 6.46 106.97 7.35 Q 107.46 8.24 107.46 9.38 L 108.02 8.96 L 99.64 8.96 L 99.64 10.02 L 108.78 10.02 Z M 30.46 14.84 L 28.92 14.84 L 35.32 0.84 L 36.78 0.84 L 43.18 14.84 L 41.62 14.84 L 35.74 1.7 L 36.34 1.7 L 30.46 14.84 Z M 6.44 14.84 L 0 14.84 L 0 0.84 L 6.04 0.84 A 9.432 9.432 0 0 1 7.4 0.932 Q 8.113 1.036 8.694 1.258 A 4.184 4.184 0 0 1 9.67 1.78 Q 10.96 2.72 10.96 4.44 Q 10.96 5.58 10.43 6.36 Q 9.9 7.14 8.99 7.54 A 4.787 4.787 0 0 1 7.333 7.93 A 5.628 5.628 0 0 1 7 7.94 L 7.34 7.46 A 7.348 7.348 0 0 1 8.423 7.536 Q 9.007 7.623 9.501 7.81 A 4.338 4.338 0 0 1 9.65 7.87 A 3.515 3.515 0 0 1 10.639 8.488 A 3.163 3.163 0 0 1 11.16 9.09 A 3.119 3.119 0 0 1 11.611 10.189 A 4.416 4.416 0 0 1 11.7 11.1 A 3.862 3.862 0 0 1 11.516 12.323 A 3.113 3.113 0 0 1 10.39 13.86 Q 9.08 14.84 6.44 14.84 Z M 1.48 2.06 L 1.48 13.62 L 6.42 13.62 A 8.649 8.649 0 0 0 7.461 13.562 Q 7.976 13.499 8.399 13.37 A 3.375 3.375 0 0 0 9.24 12.99 A 2.058 2.058 0 0 0 10.173 11.548 A 3.271 3.271 0 0 0 10.22 10.98 A 2.961 2.961 0 0 0 10.119 10.184 A 2.018 2.018 0 0 0 9.24 8.99 A 3.404 3.404 0 0 0 8.364 8.6 Q 7.934 8.473 7.413 8.413 A 8.745 8.745 0 0 0 6.42 8.36 L 1.32 8.36 L 1.32 7.14 L 5.94 7.14 Q 7.62 7.14 8.55 6.5 A 2.073 2.073 0 0 0 9.457 4.979 A 3.054 3.054 0 0 0 9.48 4.6 A 2.779 2.779 0 0 0 9.375 3.813 A 2.004 2.004 0 0 0 8.55 2.69 A 3.237 3.237 0 0 0 7.651 2.276 Q 7.242 2.155 6.752 2.101 A 7.537 7.537 0 0 0 5.94 2.06 L 1.48 2.06 Z M 12.3 17.86 L 12.96 16.8 A 3.153 3.153 0 0 0 13.649 17.302 A 2.899 2.899 0 0 0 13.83 17.39 A 2.417 2.417 0 0 0 14.562 17.583 A 2.968 2.968 0 0 0 14.88 17.6 A 2.107 2.107 0 0 0 15.551 17.496 A 1.842 1.842 0 0 0 16.09 17.21 A 2.162 2.162 0 0 0 16.435 16.872 Q 16.758 16.483 17.06 15.84 L 17.74 14.3 L 17.9 14.08 L 22.22 4.34 L 23.62 4.34 L 18.36 16.1 Q 17.92 17.12 17.39 17.72 A 3.619 3.619 0 0 1 16.873 18.206 A 2.728 2.728 0 0 1 16.24 18.57 A 3.443 3.443 0 0 1 15.321 18.796 A 4.253 4.253 0 0 1 14.86 18.82 Q 14.12 18.82 13.45 18.58 Q 12.78 18.34 12.3 17.86 Z M 18.58 13.98 L 14.3 4.34 L 12.82 4.34 L 17.66 15.14 L 18.58 13.98 Z M 58.88 18.14 L 59.38 17.06 Q 60.02 17.6 61.02 17.6 A 2.256 2.256 0 0 0 61.54 17.544 Q 61.952 17.446 62.233 17.18 A 1.424 1.424 0 0 0 62.31 17.1 A 1.584 1.584 0 0 0 62.629 16.537 Q 62.76 16.148 62.76 15.62 L 62.76 4.34 L 64.18 4.34 L 64.18 15.62 Q 64.18 17.029 63.444 17.888 A 2.804 2.804 0 0 1 63.39 17.95 A 2.542 2.542 0 0 1 62.125 18.698 Q 61.72 18.805 61.239 18.818 A 5.004 5.004 0 0 1 61.1 18.82 Q 60.46 18.82 59.87 18.65 Q 59.28 18.48 58.88 18.14 Z M 72.42 14.94 Q 70.9 14.94 69.69 14.25 Q 68.48 13.56 67.78 12.35 A 5.221 5.221 0 0 1 67.113 10.246 A 6.482 6.482 0 0 1 67.08 9.58 Q 67.08 8 67.78 6.8 Q 68.48 5.6 69.68 4.92 A 5.249 5.249 0 0 1 71.763 4.273 A 6.509 6.509 0 0 1 72.42 4.24 A 6.11 6.11 0 0 1 73.979 4.432 A 5.117 5.117 0 0 1 75.19 4.92 Q 76.4 5.6 77.09 6.8 A 5.166 5.166 0 0 1 77.725 8.721 A 6.571 6.571 0 0 1 77.78 9.58 A 6.027 6.027 0 0 1 77.585 11.139 A 5.074 5.074 0 0 1 77.09 12.35 Q 76.4 13.56 75.18 14.25 A 5.358 5.358 0 0 1 72.94 14.92 A 6.53 6.53 0 0 1 72.42 14.94 Z M 72.42 13.68 A 4.344 4.344 0 0 0 73.558 13.536 A 3.653 3.653 0 0 0 74.44 13.17 Q 75.32 12.66 75.83 11.73 A 4.112 4.112 0 0 0 76.29 10.314 A 5.251 5.251 0 0 0 76.34 9.58 A 5.091 5.091 0 0 0 76.228 8.488 A 3.922 3.922 0 0 0 75.83 7.42 Q 75.32 6.5 74.44 5.99 A 3.806 3.806 0 0 0 72.818 5.495 A 4.665 4.665 0 0 0 72.44 5.48 A 4.216 4.216 0 0 0 71.256 5.641 A 3.665 3.665 0 0 0 70.44 5.99 Q 69.56 6.5 69.04 7.42 A 3.969 3.969 0 0 0 68.581 8.765 A 5.211 5.211 0 0 0 68.52 9.58 Q 68.52 10.8 69.04 11.73 Q 69.56 12.66 70.44 13.17 A 3.808 3.808 0 0 0 72.148 13.672 A 4.576 4.576 0 0 0 72.42 13.68 Z M 90.24 14.94 Q 88.74 14.94 87.55 14.26 Q 86.36 13.58 85.68 12.37 A 5.286 5.286 0 0 1 85.054 10.44 A 6.685 6.685 0 0 1 85 9.58 A 6.373 6.373 0 0 1 85.16 8.124 A 5.042 5.042 0 0 1 85.68 6.78 Q 86.36 5.58 87.55 4.91 A 5.241 5.241 0 0 1 89.734 4.26 A 6.382 6.382 0 0 1 90.24 4.24 A 5.262 5.262 0 0 1 91.739 4.447 A 4.59 4.59 0 0 1 92.71 4.86 A 4.441 4.441 0 0 1 94.303 6.417 A 5.39 5.39 0 0 1 94.45 6.67 A 5.08 5.08 0 0 1 94.957 8.084 Q 95.082 8.688 95.098 9.38 A 8.86 8.86 0 0 1 95.1 9.58 A 7.541 7.541 0 0 1 94.986 10.925 Q 94.841 11.726 94.511 12.382 A 4.654 4.654 0 0 1 94.46 12.48 A 4.746 4.746 0 0 1 93.513 13.731 A 4.295 4.295 0 0 1 92.73 14.31 A 4.713 4.713 0 0 1 90.796 14.914 A 5.834 5.834 0 0 1 90.24 14.94 Z M 90.34 13.68 Q 91.46 13.68 92.35 13.17 Q 93.24 12.66 93.75 11.73 A 4.112 4.112 0 0 0 94.21 10.314 A 5.251 5.251 0 0 0 94.26 9.58 A 5.091 5.091 0 0 0 94.148 8.488 A 3.922 3.922 0 0 0 93.75 7.42 Q 93.24 6.5 92.35 5.99 Q 91.46 5.48 90.34 5.48 A 4.075 4.075 0 0 0 89.051 5.679 A 3.685 3.685 0 0 0 88.36 5.99 Q 87.48 6.5 86.96 7.42 A 3.969 3.969 0 0 0 86.501 8.765 A 5.211 5.211 0 0 0 86.44 9.58 Q 86.44 10.8 86.96 11.73 Q 87.48 12.66 88.36 13.17 A 3.808 3.808 0 0 0 90.068 13.672 A 4.576 4.576 0 0 0 90.34 13.68 Z M 46.62 14.84 L 45.2 14.84 L 45.2 0 L 46.62 0 L 46.62 14.84 Z M 95.66 14.84 L 94.3 14.84 L 94.3 11.68 L 94.44 9.56 L 94.24 7.44 L 94.24 0 L 95.66 0 L 95.66 14.84 Z M 82.1 14.84 L 80.68 14.84 L 80.68 4.34 L 82.1 4.34 L 82.1 14.84 Z M 40.46 11.1 L 31.44 11.1 L 31.88 9.9 L 40.02 9.9 L 40.46 11.1 Z M 80.983 1.94 A 1.008 1.008 0 0 1 80.66 1.72 A 0.981 0.981 0 0 1 80.36 1.013 A 1.169 1.169 0 0 1 80.36 1 A 0.947 0.947 0 0 1 80.642 0.308 A 1.136 1.136 0 0 1 80.66 0.29 A 1.021 1.021 0 0 1 81.385 0 A 1.324 1.324 0 0 1 81.4 0 A 1.141 1.141 0 0 1 81.793 0.066 A 1.012 1.012 0 0 1 82.14 0.28 A 0.913 0.913 0 0 1 82.439 0.941 A 1.149 1.149 0 0 1 82.44 0.98 Q 82.44 1.42 82.15 1.72 A 0.971 0.971 0 0 1 81.512 2.015 A 1.319 1.319 0 0 1 81.4 2.02 A 1.064 1.064 0 0 1 80.983 1.94 Z M 63.063 1.94 A 1.008 1.008 0 0 1 62.74 1.72 A 0.981 0.981 0 0 1 62.44 1.013 A 1.169 1.169 0 0 1 62.44 1 A 0.947 0.947 0 0 1 62.722 0.308 A 1.136 1.136 0 0 1 62.74 0.29 A 1.021 1.021 0 0 1 63.465 0 A 1.324 1.324 0 0 1 63.48 0 A 1.141 1.141 0 0 1 63.873 0.066 A 1.012 1.012 0 0 1 64.22 0.28 A 0.913 0.913 0 0 1 64.519 0.941 A 1.149 1.149 0 0 1 64.52 0.98 Q 64.52 1.42 64.23 1.72 A 0.971 0.971 0 0 1 63.592 2.015 A 1.319 1.319 0 0 1 63.48 2.02 A 1.064 1.064 0 0 1 63.063 1.94 Z"
            vector-effect="non-scaling-stroke" />
    </g>
</svg>