<svg width="584.8" height="81.301" viewBox="0 0 584.8 81.301" xmlns="http://www.w3.org/2000/svg">
    <g id="svgGroup" stroke-linecap="round" fill-rule="nonzero" font-size="9pt" stroke="#ffffff" stroke-width="0.25mm"
        fill="#ffffff" style="stroke:#ffffff;stroke-width:0.25mm;fill:#ffffff">
        <path
            d="M 517.4 49.4 L 517.4 80.4 L 498.4 80.4 L 498.4 52.5 A 24.223 24.223 0 0 0 498.227 49.497 Q 497.829 46.319 496.511 44.457 A 6.632 6.632 0 0 0 496.2 44.05 Q 494 41.4 490.2 41.4 Q 487.5 41.4 485.3 42.7 A 8.055 8.055 0 0 0 482.54 45.446 A 10.464 10.464 0 0 0 481.9 46.65 A 12.015 12.015 0 0 0 481.123 49.059 Q 480.86 50.269 480.761 51.689 A 25.929 25.929 0 0 0 480.7 53.5 L 480.7 80.4 L 461.7 80.4 L 461.7 52.5 A 24.8 24.8 0 0 0 461.532 49.506 Q 461.148 46.355 459.881 44.496 A 6.642 6.642 0 0 0 459.55 44.05 A 7.007 7.007 0 0 0 454.845 41.486 A 10.215 10.215 0 0 0 453.5 41.4 A 10.247 10.247 0 0 0 450.67 41.778 A 8.706 8.706 0 0 0 448.55 42.7 Q 446.4 44 445.15 46.65 Q 443.9 49.3 443.9 53.5 L 443.9 80.4 L 424.9 80.4 L 424.9 26.2 L 443 26.2 L 443 41.3 L 439.4 37 Q 442.4 31.2 447.6 28.25 Q 452.8 25.3 459.2 25.3 A 24.052 24.052 0 0 1 466.809 26.471 A 21.264 21.264 0 0 1 472.05 29.05 A 16.83 16.83 0 0 1 477.86 35.963 A 24.327 24.327 0 0 1 479.5 40.7 L 473.3 39.4 Q 476.2 32.8 482.05 29.05 A 23.827 23.827 0 0 1 493.397 25.375 A 29.396 29.396 0 0 1 495.5 25.3 A 26.702 26.702 0 0 1 501.813 26.02 A 22.136 22.136 0 0 1 506.75 27.85 A 18.011 18.011 0 0 1 513.973 34.692 A 22.214 22.214 0 0 1 514.55 35.7 Q 517.4 41 517.4 49.4 Z M 115.2 58.1 L 72.3 58.1 L 72.3 48.1 L 105.1 48.1 L 97.9 50.9 A 17.517 17.517 0 0 0 97.906 50.427 Q 97.906 47.026 96.55 44.5 Q 95.1 41.8 92.55 40.3 A 10.814 10.814 0 0 0 88.495 38.926 A 13.905 13.905 0 0 0 86.6 38.8 A 13.021 13.021 0 0 0 83.436 39.17 A 10.465 10.465 0 0 0 80.65 40.3 Q 78.1 41.8 76.7 44.55 A 12.62 12.62 0 0 0 75.514 48.255 A 16.931 16.931 0 0 0 75.3 51 L 75.3 53.9 A 16.261 16.261 0 0 0 75.639 57.3 A 12.168 12.168 0 0 0 76.95 60.8 Q 78.6 63.7 81.7 65.25 Q 84.8 66.8 89.1 66.8 A 23.37 23.37 0 0 0 92.16 66.611 Q 93.733 66.403 95.079 65.967 A 13.239 13.239 0 0 0 95.95 65.65 A 18.29 18.29 0 0 0 99.14 63.961 A 24.206 24.206 0 0 0 101.6 62.1 L 111.6 72.5 Q 107.7 76.8 102 79.05 Q 96.3 81.3 88.5 81.3 A 42.61 42.61 0 0 1 80.038 80.498 A 32.171 32.171 0 0 1 71.75 77.65 A 28.635 28.635 0 0 1 63.902 71.866 A 26.304 26.304 0 0 1 60.65 67.65 A 26.299 26.299 0 0 1 56.762 55.198 A 31.945 31.945 0 0 1 56.7 53.2 A 29.083 29.083 0 0 1 58.039 44.254 A 25.804 25.804 0 0 1 60.55 38.75 Q 64.4 32.4 71.2 28.85 Q 78 25.3 86.5 25.3 A 34.147 34.147 0 0 1 96.397 26.7 A 30.609 30.609 0 0 1 101.1 28.55 Q 107.7 31.8 111.6 38.1 A 25.426 25.426 0 0 1 114.905 46.781 A 35.131 35.131 0 0 1 115.5 53.4 Q 115.5 54.26 115.426 55.341 A 42.164 42.164 0 0 1 115.4 55.7 Q 115.3 57 115.2 58.1 Z M 584.5 58.1 L 541.6 58.1 L 541.6 48.1 L 574.4 48.1 L 567.2 50.9 A 17.517 17.517 0 0 0 567.206 50.427 Q 567.206 47.026 565.85 44.5 Q 564.4 41.8 561.85 40.3 A 10.814 10.814 0 0 0 557.795 38.926 A 13.905 13.905 0 0 0 555.9 38.8 A 13.021 13.021 0 0 0 552.736 39.17 A 10.465 10.465 0 0 0 549.95 40.3 Q 547.4 41.8 546 44.55 A 12.62 12.62 0 0 0 544.814 48.255 A 16.931 16.931 0 0 0 544.6 51 L 544.6 53.9 A 16.261 16.261 0 0 0 544.939 57.3 A 12.168 12.168 0 0 0 546.25 60.8 Q 547.9 63.7 551 65.25 Q 554.1 66.8 558.4 66.8 A 23.37 23.37 0 0 0 561.46 66.611 Q 563.033 66.403 564.379 65.967 A 13.239 13.239 0 0 0 565.25 65.65 A 18.29 18.29 0 0 0 568.44 63.961 A 24.206 24.206 0 0 0 570.9 62.1 L 580.9 72.5 Q 577 76.8 571.3 79.05 Q 565.6 81.3 557.8 81.3 A 42.61 42.61 0 0 1 549.338 80.498 A 32.171 32.171 0 0 1 541.05 77.65 A 28.635 28.635 0 0 1 533.202 71.866 A 26.304 26.304 0 0 1 529.95 67.65 A 26.299 26.299 0 0 1 526.062 55.198 A 31.945 31.945 0 0 1 526 53.2 A 29.083 29.083 0 0 1 527.339 44.254 A 25.804 25.804 0 0 1 529.85 38.75 Q 533.7 32.4 540.5 28.85 Q 547.3 25.3 555.8 25.3 A 34.147 34.147 0 0 1 565.697 26.7 A 30.609 30.609 0 0 1 570.4 28.55 Q 577 31.8 580.9 38.1 A 25.426 25.426 0 0 1 584.205 46.781 A 35.131 35.131 0 0 1 584.8 53.4 Q 584.8 54.26 584.726 55.341 A 42.164 42.164 0 0 1 584.7 55.7 Q 584.6 57 584.5 58.1 Z M 289.1 49.4 L 289.1 80.4 L 270.1 80.4 L 270.1 52.5 A 22.677 22.677 0 0 0 269.914 49.487 Q 269.439 45.955 267.75 44.05 A 7.687 7.687 0 0 0 263.243 41.577 A 11.312 11.312 0 0 0 261.2 41.4 Q 258.2 41.4 255.7 42.75 A 9.004 9.004 0 0 0 252.264 46.061 A 11.332 11.332 0 0 0 251.8 46.9 A 11.825 11.825 0 0 0 250.894 49.456 Q 250.589 50.735 250.472 52.243 A 25.41 25.41 0 0 0 250.4 54.2 L 250.4 80.4 L 231.4 80.4 L 231.4 26.2 L 249.5 26.2 L 249.5 41.6 L 246 37.1 A 22.121 22.121 0 0 1 250.353 31.265 A 19.832 19.832 0 0 1 254.5 28.25 A 24.256 24.256 0 0 1 264.198 25.404 A 29.655 29.655 0 0 1 266.7 25.3 A 26.886 26.886 0 0 1 273.758 26.199 A 23.321 23.321 0 0 1 278.1 27.85 Q 283.2 30.4 286.15 35.7 A 21.299 21.299 0 0 1 288.167 40.931 Q 288.794 43.447 289 46.405 A 43.188 43.188 0 0 1 289.1 49.4 Z M 365.7 80.4 L 345.9 80.4 L 345.9 26.1 L 324.4 26.1 L 324.4 10.4 L 387.1 10.4 L 387.1 26.1 L 365.7 26.1 L 365.7 80.4 Z M 53.2 80.4 L 0 80.4 L 0 10.4 L 19.8 10.4 L 19.8 64.7 L 53.2 64.7 L 53.2 80.4 Z M 206.1 80.4 L 187.1 80.4 L 187.1 26.2 L 205.2 26.2 L 205.2 42 L 202.5 37.5 A 18.412 18.412 0 0 1 206.213 31.535 A 17.201 17.201 0 0 1 210.3 28.35 Q 215.626 25.342 223.19 25.301 A 38.649 38.649 0 0 1 223.4 25.3 L 223.4 42.4 A 30.95 30.95 0 0 0 222.474 42.272 Q 221.744 42.182 221.15 42.15 Q 220.2 42.1 219.1 42.1 A 17.402 17.402 0 0 0 214.982 42.562 A 12.294 12.294 0 0 0 209.7 45.25 A 9.503 9.503 0 0 0 207.072 49.189 Q 206.495 50.746 206.26 52.679 A 23.471 23.471 0 0 0 206.1 55.5 L 206.1 80.4 Z M 175.1 80.4 L 157.4 80.4 L 157.4 70.3 L 156.1 67.8 L 156.1 49.2 Q 156.1 44.7 153.35 42.25 Q 150.6 39.8 144.6 39.8 A 26.005 26.005 0 0 0 137.698 40.757 A 29.582 29.582 0 0 0 136.7 41.05 A 23.855 23.855 0 0 0 132.894 42.592 A 18.615 18.615 0 0 0 129.9 44.5 L 123.5 31.6 A 32.354 32.354 0 0 1 129.172 28.688 A 43.471 43.471 0 0 1 134.55 26.95 Q 141 25.3 147.4 25.3 A 46.282 46.282 0 0 1 155.378 25.944 Q 159.646 26.692 163.058 28.309 A 22.422 22.422 0 0 1 167.85 31.35 A 18.871 18.871 0 0 1 173.711 40.319 Q 175.1 44.654 175.1 50.3 L 175.1 80.4 Z M 145.3 48.4 L 158.1 48.4 L 158.1 58.3 L 147.9 58.3 A 22.392 22.392 0 0 0 145.772 58.394 Q 143.572 58.605 142.241 59.29 A 4.583 4.583 0 0 0 141.45 59.8 A 4.813 4.813 0 0 0 139.619 63.303 A 6.369 6.369 0 0 0 139.6 63.8 A 5.298 5.298 0 0 0 139.96 65.788 A 4.841 4.841 0 0 0 141.5 67.8 Q 143.133 69.09 145.8 69.271 A 13.281 13.281 0 0 0 146.7 69.3 Q 149.8 69.3 152.35 67.75 A 8.559 8.559 0 0 0 155.44 64.454 A 11.372 11.372 0 0 0 156.1 63 L 158.7 70 A 15.98 15.98 0 0 1 156.799 74.443 A 13.143 13.143 0 0 1 152.85 78.45 A 16.142 16.142 0 0 1 148.079 80.52 Q 146.042 81.056 143.649 81.224 A 32.176 32.176 0 0 1 141.4 81.3 Q 134.9 81.3 130.4 79.1 A 17.839 17.839 0 0 1 126.331 76.406 A 14.945 14.945 0 0 1 123.55 73.1 A 15.827 15.827 0 0 1 121.2 64.637 A 18.915 18.915 0 0 1 121.2 64.6 A 16.459 16.459 0 0 1 121.818 60.006 A 13.665 13.665 0 0 1 123.75 55.95 A 13.608 13.608 0 0 1 127.489 52.382 Q 129.057 51.351 131.029 50.569 A 24.35 24.35 0 0 1 131.6 50.35 A 27.598 27.598 0 0 1 136.011 49.162 Q 138.283 48.734 140.938 48.546 A 62.04 62.04 0 0 1 145.3 48.4 Z M 412.6 80.4 L 393.6 80.4 L 393.6 26.2 L 412.6 26.2 L 412.6 80.4 Z M 399.412 19.775 A 10.796 10.796 0 0 1 394.7 17.3 Q 391.5 14.4 391.5 10.1 A 9.281 9.281 0 0 1 394.36 3.222 A 11.399 11.399 0 0 1 394.7 2.9 A 10.946 10.946 0 0 1 400.01 0.291 A 15.679 15.679 0 0 1 403.1 0 A 16.015 16.015 0 0 1 406.719 0.387 A 11.023 11.023 0 0 1 411.5 2.75 A 8.803 8.803 0 0 1 414.68 9.138 A 11.091 11.091 0 0 1 414.7 9.8 Q 414.7 14.3 411.55 17.25 A 10.611 10.611 0 0 1 406.49 19.852 A 15.607 15.607 0 0 1 403.1 20.2 A 15.163 15.163 0 0 1 399.412 19.775 Z"
            vector-effect="non-scaling-stroke" />
    </g>
</svg>